<svg xmlns="http://www.w3.org/2000/svg" viewBox="0 0 512 512" width="512" height="512">
  <defs>
    <linearGradient id="bg" x1="0" y1="0" x2="0" y2="1">
      <stop offset="0" stop-color="#1e40af"/>
      <stop offset="1" stop-color="#3b82f6"/>
    </linearGradient>
    <clipPath id="rr"><rect x="0" y="0" width="512" height="512" rx="116"/></clipPath>
  </defs>
  <rect x="0" y="0" width="512" height="512" rx="116" fill="url(#bg)"/>
  <g clip-path="url(#rr)">
    <path d="M 276.82,268.00 L 277.27,268.77 L 277.64,269.57 L 277.92,270.39 L 278.11,271.22 L 278.21,272.06 L 278.20,272.90 L 278.09,273.73 L 277.87,274.54 L 277.56,275.32 L 277.15,276.06 L 276.65,276.76 L 276.06,277.40 L 275.40,278.00 L 274.67,278.52 L 273.87,278.99 L 273.03,279.38 L 272.15,279.71 L 271.24,279.98 L 270.31,280.17 L 269.38,280.31 L 268.45,280.39 L 267.53,280.42 L 266.63,280.40 L 265.75,280.35 L 264.91,280.27 L 264.10,280.17 L 263.34,280.05 L 262.61,279.94 L 261.93,279.83 L 261.29,279.74 L 260.68,279.67 L 260.11,279.63 L 259.56,279.62 L 259.04,279.66 L 258.54,279.73 L 258.04,279.85 L 257.55,280.02 L 257.05,280.22 L 256.53,280.47 L 256.00,280.76 L 255.44,281.08 L 254.85,281.43 L 254.22,281.80 L 253.56,282.18 L 252.85,282.56 L 252.10,282.94 L 251.31,283.29 L 250.48,283.63 L 249.62,283.92 L 248.72,284.17 L 247.80,284.37 L 246.86,284.51 L 245.91,284.58 L 244.96,284.58 L 244.01,284.50 L 243.09,284.34 L 242.20,284.11 L 241.35,283.78 L 240.54,283.38 L 239.80,282.91 L 239.12,282.36 L 238.52,281.74 L 237.99,281.06 L 237.56,280.33 L 237.21,279.55 L 236.96,278.74 L 236.79,277.90 L 236.72,277.04 L 236.74,276.17 L 236.85,275.30 L 237.03,274.44 L 237.28,273.59 L 237.60,272.77 L 237.98,271.98 L 238.40,271.22 L 238.86,270.50 L 239.34,269.81 L 239.83,269.17 L 240.33,268.57 L 240.82,268.00 L 241.30,267.47 L 241.75,266.97 L 242.17,266.49 L 242.56,266.04 L 242.90,265.60 L 243.19,265.17 L 243.44,264.74 L 243.63,264.30 L 243.78,263.85 L 243.89,263.39 L 243.96,262.89 L 243.99,262.37 L 243.99,261.81 L 243.97,261.22 L 243.94,260.59 L 243.91,259.92 L 243.88,259.21 L 243.87,258.47 L 243.88,257.69 L 243.92,256.89 L 244.01,256.07 L 244.15,255.23 L 244.34,254.39 L 244.59,253.55 L 244.91,252.73 L 245.29,251.93 L 245.75,251.16 L 246.27,250.43 L 246.86,249.76 L 247.51,249.14 L 248.22,248.60 L 248.98,248.13 L 249.79,247.75 L 250.64,247.45 L 251.51,247.25 L 252.41,247.14 L 253.31,247.12 L 254.22,247.21 L 255.12,247.38 L 256.00,247.64 L 256.85,247.99 L 257.68,248.42 L 258.46,248.91 L 259.19,249.47 L 259.88,250.08 L 260.51,250.73 L 261.08,251.42 L 261.61,252.13 L 262.08,252.85 L 262.49,253.58 L 262.87,254.30 L 263.20,255.00 L 263.50,255.69 L 263.77,256.34 L 264.01,256.96 L 264.25,257.55 L 264.49,258.10 L 264.73,258.60 L 264.98,259.06 L 265.25,259.49 L 265.55,259.87 L 265.89,260.23 L 266.26,260.56 L 266.68,260.86 L 267.14,261.15 L 267.65,261.43 L 268.20,261.71 L 268.80,262.00 L 269.44,262.30 L 270.11,262.62 L 270.80,262.98 L 271.52,263.36 L 272.25,263.78 L 272.98,264.25 L 273.71,264.76 L 274.41,265.32 L 275.09,265.92 L 275.72,266.57 L 276.30,267.27 L 276.82,268.00 Z" fill="none" stroke="#ffffff" stroke-width="8.5" stroke-linejoin="round" opacity="0.96"/>
    <path d="M 301.87,265.00 L 302.25,266.67 L 302.47,268.36 L 302.54,270.07 L 302.45,271.77 L 302.19,273.45 L 301.77,275.11 L 301.20,276.73 L 300.47,278.29 L 299.60,279.80 L 298.59,281.23 L 297.46,282.58 L 296.21,283.85 L 294.87,285.03 L 293.44,286.11 L 291.93,287.09 L 290.38,287.98 L 288.78,288.77 L 287.15,289.48 L 285.51,290.10 L 283.87,290.64 L 282.24,291.12 L 280.63,291.53 L 279.05,291.90 L 277.50,292.23 L 275.99,292.53 L 274.52,292.81 L 273.09,293.08 L 271.71,293.36 L 270.36,293.65 L 269.04,293.96 L 267.75,294.29 L 266.48,294.66 L 265.22,295.06 L 263.96,295.50 L 262.70,295.97 L 261.42,296.48 L 260.12,297.01 L 258.79,297.57 L 257.42,298.15 L 256.00,298.73 L 254.53,299.31 L 253.02,299.87 L 251.44,300.41 L 249.82,300.91 L 248.14,301.36 L 246.41,301.74 L 244.64,302.04 L 242.84,302.26 L 241.01,302.38 L 239.17,302.39 L 237.32,302.28 L 235.48,302.05 L 233.66,301.69 L 231.89,301.20 L 230.16,300.58 L 228.50,299.83 L 226.91,298.94 L 225.42,297.94 L 224.03,296.81 L 222.76,295.58 L 221.61,294.25 L 220.58,292.83 L 219.69,291.33 L 218.94,289.77 L 218.32,288.16 L 217.85,286.51 L 217.50,284.84 L 217.28,283.15 L 217.19,281.46 L 217.20,279.78 L 217.32,278.13 L 217.53,276.50 L 217.81,274.91 L 218.16,273.36 L 218.56,271.85 L 219.00,270.39 L 219.46,268.98 L 219.94,267.61 L 220.41,266.29 L 220.87,265.00 L 221.31,263.75 L 221.72,262.52 L 222.10,261.31 L 222.44,260.11 L 222.75,258.91 L 223.01,257.71 L 223.24,256.50 L 223.44,255.27 L 223.61,254.01 L 223.76,252.71 L 223.90,251.39 L 224.04,250.02 L 224.19,248.61 L 224.37,247.17 L 224.59,245.69 L 224.85,244.18 L 225.17,242.64 L 225.56,241.08 L 226.03,239.52 L 226.60,237.95 L 227.26,236.40 L 228.03,234.87 L 228.90,233.38 L 229.89,231.94 L 230.99,230.56 L 232.20,229.27 L 233.52,228.06 L 234.93,226.96 L 236.44,225.97 L 238.04,225.11 L 239.71,224.38 L 241.45,223.79 L 243.23,223.34 L 245.05,223.04 L 246.89,222.88 L 248.75,222.88 L 250.60,223.01 L 252.43,223.28 L 254.24,223.68 L 256.00,224.21 L 257.71,224.84 L 259.37,225.58 L 260.97,226.41 L 262.49,227.31 L 263.94,228.27 L 265.32,229.28 L 266.63,230.32 L 267.87,231.39 L 269.05,232.47 L 270.16,233.54 L 271.23,234.61 L 272.25,235.66 L 273.24,236.68 L 274.21,237.67 L 275.16,238.62 L 276.11,239.54 L 277.06,240.42 L 278.03,241.27 L 279.02,242.09 L 280.03,242.89 L 281.09,243.67 L 282.17,244.43 L 283.30,245.20 L 284.47,245.97 L 285.67,246.76 L 286.91,247.57 L 288.17,248.42 L 289.46,249.32 L 290.75,250.26 L 292.04,251.27 L 293.32,252.33 L 294.57,253.47 L 295.77,254.68 L 296.93,255.96 L 298.01,257.31 L 299.00,258.73 L 299.90,260.22 L 300.69,261.76 L 301.35,263.36 L 301.87,265.00 Z" fill="none" stroke="#ffffff" stroke-width="8.5" stroke-linejoin="round" opacity="0.96"/>
    <path d="M 326.90,262.00 L 327.05,264.57 L 326.98,267.14 L 326.68,269.70 L 326.16,272.22 L 325.43,274.71 L 324.49,277.13 L 323.35,279.47 L 322.02,281.74 L 320.52,283.90 L 318.87,285.96 L 317.08,287.90 L 315.17,289.73 L 313.15,291.45 L 311.05,293.04 L 308.89,294.51 L 306.68,295.88 L 304.44,297.13 L 302.19,298.29 L 299.94,299.36 L 297.69,300.36 L 295.47,301.29 L 293.28,302.16 L 291.13,303.00 L 289.01,303.80 L 286.93,304.59 L 284.89,305.38 L 282.88,306.16 L 280.90,306.96 L 278.94,307.79 L 276.99,308.63 L 275.05,309.50 L 273.09,310.40 L 271.12,311.33 L 269.12,312.28 L 267.08,313.24 L 264.99,314.21 L 262.84,315.18 L 260.63,316.13 L 258.35,317.06 L 256.00,317.94 L 253.58,318.77 L 251.08,319.52 L 248.52,320.18 L 245.89,320.73 L 243.21,321.16 L 240.48,321.46 L 237.73,321.60 L 234.96,321.59 L 232.18,321.40 L 229.42,321.04 L 226.69,320.49 L 224.01,319.76 L 221.40,318.84 L 218.88,317.73 L 216.46,316.45 L 214.15,314.99 L 211.99,313.36 L 209.97,311.59 L 208.10,309.67 L 206.40,307.63 L 204.88,305.47 L 203.53,303.23 L 202.36,300.90 L 201.37,298.52 L 200.55,296.09 L 199.89,293.63 L 199.39,291.17 L 199.04,288.70 L 198.82,286.25 L 198.72,283.83 L 198.72,281.44 L 198.81,279.09 L 198.98,276.80 L 199.20,274.55 L 199.46,272.35 L 199.75,270.20 L 200.04,268.09 L 200.34,266.03 L 200.63,264.00 L 200.90,262.00 L 201.15,260.02 L 201.36,258.04 L 201.55,256.07 L 201.71,254.09 L 201.85,252.09 L 201.97,250.07 L 202.08,248.01 L 202.19,245.91 L 202.31,243.78 L 202.46,241.60 L 202.65,239.37 L 202.90,237.11 L 203.22,234.80 L 203.62,232.47 L 204.12,230.11 L 204.74,227.74 L 205.49,225.37 L 206.38,223.01 L 207.41,220.68 L 208.60,218.39 L 209.95,216.16 L 211.45,214.02 L 213.12,211.96 L 214.95,210.02 L 216.93,208.21 L 219.06,206.54 L 221.32,205.02 L 223.70,203.68 L 226.19,202.51 L 228.78,201.53 L 231.44,200.75 L 234.16,200.16 L 236.92,199.76 L 239.71,199.56 L 242.50,199.55 L 245.28,199.72 L 248.03,200.06 L 250.75,200.57 L 253.40,201.23 L 256.00,202.02 L 258.52,202.94 L 260.97,203.95 L 263.33,205.06 L 265.60,206.24 L 267.79,207.47 L 269.90,208.74 L 271.93,210.04 L 273.89,211.34 L 275.79,212.65 L 277.64,213.94 L 279.44,215.22 L 281.21,216.47 L 282.97,217.70 L 284.71,218.89 L 286.46,220.06 L 288.22,221.21 L 289.99,222.33 L 291.80,223.44 L 293.63,224.55 L 295.50,225.66 L 297.41,226.79 L 299.34,227.94 L 301.31,229.14 L 303.31,230.38 L 305.31,231.69 L 307.32,233.07 L 309.33,234.53 L 311.30,236.08 L 313.24,237.72 L 315.13,239.47 L 316.93,241.32 L 318.65,243.27 L 320.25,245.33 L 321.72,247.49 L 323.04,249.73 L 324.19,252.06 L 325.17,254.47 L 325.95,256.93 L 326.53,259.45 L 326.90,262.00 Z" fill="none" stroke="#ffffff" stroke-width="8.5" stroke-linejoin="round" opacity="0.96"/>
    <path d="M 351.27,259.00 L 351.04,262.44 L 350.53,265.84 L 349.74,269.21 L 348.70,272.51 L 347.40,275.73 L 345.87,278.85 L 344.12,281.87 L 342.18,284.76 L 340.06,287.53 L 337.78,290.17 L 335.38,292.67 L 332.86,295.03 L 330.26,297.26 L 327.59,299.36 L 324.87,301.34 L 322.13,303.20 L 319.38,304.97 L 316.63,306.64 L 313.90,308.24 L 311.19,309.77 L 308.50,311.25 L 305.85,312.70 L 303.24,314.13 L 300.65,315.54 L 298.09,316.96 L 295.55,318.38 L 293.02,319.82 L 290.49,321.28 L 287.95,322.75 L 285.38,324.25 L 282.77,325.77 L 280.12,327.29 L 277.40,328.82 L 274.62,330.34 L 271.75,331.83 L 268.79,333.29 L 265.74,334.69 L 262.59,336.02 L 259.34,337.25 L 256.00,338.37 L 252.57,339.36 L 249.05,340.20 L 245.47,340.87 L 241.82,341.35 L 238.14,341.63 L 234.42,341.69 L 230.70,341.52 L 227.00,341.12 L 223.33,340.48 L 219.71,339.60 L 216.18,338.47 L 212.75,337.10 L 209.44,335.49 L 206.27,333.66 L 203.26,331.62 L 200.42,329.37 L 197.78,326.95 L 195.33,324.36 L 193.08,321.62 L 191.05,318.76 L 189.22,315.79 L 187.61,312.74 L 186.20,309.63 L 184.98,306.47 L 183.96,303.29 L 183.10,300.10 L 182.41,296.91 L 181.86,293.75 L 181.44,290.62 L 181.12,287.53 L 180.90,284.49 L 180.74,281.50 L 180.64,278.55 L 180.58,275.66 L 180.53,272.81 L 180.50,270.00 L 180.46,267.23 L 180.41,264.47 L 180.35,261.73 L 180.27,259.00 L 180.17,256.26 L 180.05,253.50 L 179.93,250.72 L 179.80,247.90 L 179.69,245.03 L 179.60,242.12 L 179.54,239.16 L 179.55,236.15 L 179.63,233.08 L 179.80,229.96 L 180.08,226.80 L 180.50,223.61 L 181.06,220.39 L 181.79,217.16 L 182.69,213.94 L 183.79,210.73 L 185.09,207.57 L 186.60,204.47 L 188.33,201.45 L 190.27,198.53 L 192.43,195.73 L 194.80,193.08 L 197.37,190.58 L 200.14,188.27 L 203.09,186.15 L 206.21,184.24 L 209.47,182.56 L 212.86,181.10 L 216.36,179.89 L 219.94,178.91 L 223.59,178.17 L 227.28,177.67 L 230.99,177.41 L 234.70,177.37 L 238.39,177.54 L 242.04,177.91 L 245.64,178.46 L 249.17,179.18 L 252.63,180.05 L 256.00,181.05 L 259.28,182.16 L 262.47,183.37 L 265.57,184.64 L 268.57,185.97 L 271.50,187.33 L 274.34,188.72 L 277.12,190.11 L 279.84,191.50 L 282.51,192.89 L 285.15,194.25 L 287.77,195.60 L 290.38,196.92 L 292.99,198.23 L 295.62,199.52 L 298.26,200.81 L 300.94,202.10 L 303.64,203.40 L 306.38,204.73 L 309.16,206.10 L 311.96,207.52 L 314.79,209.00 L 317.64,210.57 L 320.49,212.23 L 323.33,214.00 L 326.14,215.88 L 328.91,217.90 L 331.61,220.04 L 334.23,222.33 L 336.73,224.76 L 339.11,227.33 L 341.33,230.04 L 343.37,232.88 L 345.22,235.85 L 346.85,238.93 L 348.25,242.12 L 349.39,245.39 L 350.28,248.73 L 350.89,252.13 L 351.22,255.56 L 351.27,259.00 Z" fill="none" stroke="#ffffff" stroke-width="8.5" stroke-linejoin="round" opacity="0.96"/>
    <path d="M 374.37,256.00 L 373.65,260.25 L 372.61,264.44 L 371.28,268.55 L 369.67,272.56 L 367.79,276.46 L 365.68,280.23 L 363.36,283.86 L 360.86,287.34 L 358.19,290.69 L 355.39,293.88 L 352.49,296.92 L 349.50,299.83 L 346.45,302.60 L 343.36,305.25 L 340.25,307.79 L 337.13,310.23 L 334.02,312.59 L 330.93,314.88 L 327.86,317.11 L 324.81,319.31 L 321.79,321.48 L 318.79,323.64 L 315.80,325.79 L 312.82,327.96 L 309.84,330.13 L 306.84,332.32 L 303.80,334.53 L 300.72,336.75 L 297.58,338.97 L 294.36,341.20 L 291.05,343.41 L 287.64,345.60 L 284.12,347.74 L 280.48,349.82 L 276.72,351.81 L 272.82,353.70 L 268.80,355.46 L 264.65,357.07 L 260.38,358.49 L 256.00,359.72 L 251.53,360.73 L 246.97,361.50 L 242.36,362.02 L 237.71,362.25 L 233.04,362.21 L 228.37,361.86 L 223.74,361.22 L 219.17,360.27 L 214.69,359.03 L 210.31,357.48 L 206.07,355.64 L 201.98,353.53 L 198.08,351.16 L 194.37,348.53 L 190.86,345.68 L 187.59,342.63 L 184.54,339.40 L 181.73,336.00 L 179.16,332.48 L 176.82,328.84 L 174.72,325.13 L 172.83,321.35 L 171.16,317.53 L 169.68,313.69 L 168.39,309.86 L 167.25,306.03 L 166.26,302.24 L 165.39,298.47 L 164.62,294.76 L 163.94,291.08 L 163.31,287.46 L 162.73,283.88 L 162.18,280.34 L 161.64,276.84 L 161.11,273.36 L 160.58,269.90 L 160.04,266.45 L 159.49,262.99 L 158.93,259.51 L 158.37,256.00 L 157.81,252.45 L 157.28,248.85 L 156.78,245.20 L 156.32,241.48 L 155.94,237.69 L 155.65,233.84 L 155.47,229.92 L 155.43,225.94 L 155.54,221.90 L 155.84,217.83 L 156.33,213.73 L 157.04,209.61 L 157.99,205.50 L 159.19,201.42 L 160.65,197.39 L 162.38,193.43 L 164.39,189.56 L 166.68,185.82 L 169.24,182.22 L 172.08,178.79 L 175.17,175.55 L 178.51,172.53 L 182.08,169.73 L 185.86,167.19 L 189.84,164.90 L 193.98,162.88 L 198.26,161.14 L 202.66,159.69 L 207.15,158.51 L 211.70,157.61 L 216.29,156.98 L 220.90,156.61 L 225.49,156.48 L 230.06,156.59 L 234.58,156.91 L 239.03,157.43 L 243.41,158.12 L 247.70,158.96 L 251.90,159.93 L 256.00,161.00 L 260.01,162.17 L 263.92,163.40 L 267.75,164.67 L 271.50,165.98 L 275.18,167.30 L 278.80,168.63 L 282.38,169.96 L 285.92,171.28 L 289.45,172.59 L 292.97,173.89 L 296.50,175.18 L 300.05,176.47 L 303.62,177.77 L 307.22,179.10 L 310.87,180.45 L 314.55,181.86 L 318.26,183.34 L 322.01,184.90 L 325.78,186.55 L 329.56,188.33 L 333.33,190.24 L 337.08,192.29 L 340.79,194.50 L 344.43,196.89 L 347.99,199.45 L 351.42,202.20 L 354.72,205.14 L 357.85,208.26 L 360.78,211.56 L 363.49,215.04 L 365.96,218.68 L 368.16,222.47 L 370.07,226.40 L 371.68,230.45 L 372.96,234.60 L 373.92,238.82 L 374.54,243.09 L 374.82,247.40 L 374.76,251.71 L 374.37,256.00 Z" fill="none" stroke="#ffffff" stroke-width="8.5" stroke-linejoin="round" opacity="0.96"/>
    <path d="M 395.75,253.00 L 394.50,258.01 L 392.94,262.92 L 391.07,267.71 L 388.94,272.37 L 386.56,276.89 L 383.96,281.26 L 381.19,285.48 L 378.25,289.55 L 375.20,293.46 L 372.04,297.22 L 368.81,300.84 L 365.53,304.34 L 362.21,307.72 L 358.89,311.00 L 355.56,314.20 L 352.24,317.33 L 348.93,320.40 L 345.64,323.43 L 342.36,326.44 L 339.09,329.44 L 335.81,332.43 L 332.53,335.44 L 329.22,338.45 L 325.88,341.48 L 322.47,344.52 L 318.99,347.57 L 315.42,350.62 L 311.75,353.66 L 307.95,356.67 L 304.01,359.63 L 299.92,362.53 L 295.67,365.33 L 291.26,368.03 L 286.68,370.58 L 281.94,372.97 L 277.03,375.16 L 271.97,377.13 L 266.77,378.86 L 261.44,380.31 L 256.00,381.46 L 250.48,382.31 L 244.89,382.82 L 239.28,382.98 L 233.66,382.79 L 228.06,382.24 L 222.51,381.33 L 217.05,380.06 L 211.70,378.43 L 206.49,376.46 L 201.45,374.16 L 196.60,371.54 L 191.96,368.63 L 187.54,365.46 L 183.37,362.04 L 179.45,358.40 L 175.78,354.58 L 172.38,350.59 L 169.23,346.47 L 166.33,342.25 L 163.67,337.95 L 161.23,333.59 L 159.02,329.21 L 156.99,324.81 L 155.14,320.42 L 153.44,316.04 L 151.88,311.70 L 150.42,307.40 L 149.05,303.13 L 147.75,298.91 L 146.50,294.73 L 145.28,290.58 L 144.09,286.45 L 142.90,282.35 L 141.71,278.24 L 140.53,274.13 L 139.34,270.00 L 138.16,265.83 L 136.99,261.62 L 135.85,257.34 L 134.75,253.00 L 133.71,248.58 L 132.74,244.08 L 131.88,239.48 L 131.15,234.81 L 130.57,230.05 L 130.18,225.21 L 129.99,220.30 L 130.03,215.34 L 130.33,210.35 L 130.91,205.33 L 131.78,200.32 L 132.97,195.33 L 134.49,190.40 L 136.35,185.54 L 138.54,180.80 L 141.08,176.19 L 143.96,171.74 L 147.17,167.49 L 150.70,163.45 L 154.53,159.65 L 158.65,156.11 L 163.03,152.85 L 167.64,149.88 L 172.46,147.22 L 177.47,144.87 L 182.62,142.84 L 187.89,141.12 L 193.26,139.71 L 198.68,138.60 L 204.13,137.79 L 209.58,137.25 L 215.02,136.97 L 220.42,136.92 L 225.75,137.10 L 231.02,137.46 L 236.20,138.00 L 241.29,138.68 L 246.29,139.48 L 251.19,140.37 L 256.00,141.34 L 260.72,142.37 L 265.37,143.44 L 269.95,144.53 L 274.48,145.63 L 278.97,146.74 L 283.44,147.85 L 287.90,148.95 L 292.36,150.06 L 296.83,151.18 L 301.33,152.31 L 305.87,153.48 L 310.45,154.69 L 315.07,155.95 L 319.74,157.30 L 324.45,158.75 L 329.19,160.32 L 333.96,162.02 L 338.73,163.88 L 343.49,165.92 L 348.22,168.16 L 352.89,170.60 L 357.48,173.26 L 361.96,176.15 L 366.29,179.28 L 370.46,182.64 L 374.42,186.24 L 378.14,190.07 L 381.60,194.12 L 384.78,198.38 L 387.63,202.84 L 390.15,207.47 L 392.31,212.25 L 394.10,217.17 L 395.50,222.19 L 396.51,227.29 L 397.13,232.44 L 397.35,237.61 L 397.19,242.78 L 396.65,247.92 L 395.75,253.00 Z" fill="none" stroke="#ffffff" stroke-width="8.5" stroke-linejoin="round" opacity="0.96"/>
    <path d="M 415.24,250.00 L 413.52,255.69 L 411.51,261.26 L 409.22,266.68 L 406.69,271.96 L 403.96,277.08 L 401.05,282.04 L 398.00,286.85 L 394.84,291.50 L 391.60,296.02 L 388.29,300.41 L 384.95,304.69 L 381.58,308.87 L 378.20,312.96 L 374.82,316.99 L 371.44,320.96 L 368.06,324.91 L 364.69,328.83 L 361.31,332.74 L 357.90,336.66 L 354.47,340.59 L 350.98,344.53 L 347.43,348.49 L 343.79,352.45 L 340.05,356.42 L 336.17,360.39 L 332.15,364.33 L 327.97,368.22 L 323.60,372.06 L 319.04,375.81 L 314.28,379.44 L 309.30,382.93 L 304.12,386.24 L 298.72,389.35 L 293.11,392.22 L 287.31,394.83 L 281.33,397.14 L 275.18,399.13 L 268.90,400.76 L 262.49,402.03 L 256.00,402.90 L 249.45,403.38 L 242.87,403.43 L 236.31,403.07 L 229.78,402.29 L 223.33,401.09 L 216.99,399.47 L 210.79,397.47 L 204.76,395.08 L 198.93,392.33 L 193.31,389.24 L 187.93,385.84 L 182.80,382.16 L 177.94,378.23 L 173.35,374.08 L 169.03,369.75 L 164.98,365.26 L 161.19,360.64 L 157.66,355.93 L 154.36,351.15 L 151.29,346.33 L 148.42,341.49 L 145.74,336.64 L 143.21,331.80 L 140.82,326.99 L 138.54,322.21 L 136.35,317.46 L 134.23,312.74 L 132.16,308.05 L 130.13,303.39 L 128.12,298.73 L 126.12,294.08 L 124.13,289.42 L 122.15,284.73 L 120.18,280.00 L 118.22,275.21 L 116.29,270.36 L 114.41,265.42 L 112.59,260.38 L 110.86,255.25 L 109.24,250.00 L 107.76,244.64 L 106.45,239.17 L 105.34,233.59 L 104.46,227.92 L 103.84,222.15 L 103.51,216.32 L 103.49,210.43 L 103.82,204.51 L 104.51,198.58 L 105.59,192.68 L 107.06,186.83 L 108.93,181.06 L 111.21,175.40 L 113.91,169.89 L 117.01,164.56 L 120.50,159.43 L 124.38,154.54 L 128.62,149.91 L 133.20,145.57 L 138.09,141.53 L 143.27,137.81 L 148.70,134.42 L 154.35,131.37 L 160.18,128.67 L 166.17,126.31 L 172.27,124.29 L 178.45,122.60 L 184.68,121.22 L 190.93,120.15 L 197.18,119.35 L 203.39,118.81 L 209.56,118.50 L 215.66,118.40 L 221.68,118.48 L 227.62,118.72 L 233.46,119.09 L 239.22,119.56 L 244.89,120.11 L 250.48,120.72 L 256.00,121.38 L 261.46,122.07 L 266.88,122.78 L 272.27,123.50 L 277.65,124.23 L 283.03,124.98 L 288.43,125.73 L 293.85,126.52 L 299.32,127.33 L 304.84,128.21 L 310.41,129.15 L 316.04,130.18 L 321.73,131.33 L 327.46,132.61 L 333.23,134.05 L 339.03,135.67 L 344.84,137.50 L 350.63,139.56 L 356.39,141.86 L 362.08,144.43 L 367.67,147.27 L 373.13,150.39 L 378.42,153.81 L 383.52,157.52 L 388.38,161.52 L 392.97,165.80 L 397.26,170.36 L 401.21,175.18 L 404.81,180.24 L 408.02,185.52 L 410.83,191.00 L 413.21,196.64 L 415.16,202.42 L 416.66,208.31 L 417.72,214.28 L 418.34,220.29 L 418.53,226.32 L 418.29,232.33 L 417.65,238.30 L 416.62,244.19 L 415.24,250.00 Z" fill="none" stroke="#ffffff" stroke-width="8.5" stroke-linejoin="round" opacity="0.96"/>
    <path d="M 432.98,247.00 L 430.94,253.32 L 428.64,259.50 L 426.12,265.52 L 423.41,271.39 L 420.55,277.11 L 417.56,282.68 L 414.48,288.12 L 411.33,293.43 L 408.13,298.63 L 404.90,303.74 L 401.64,308.77 L 398.38,313.74 L 395.11,318.67 L 391.83,323.58 L 388.53,328.47 L 385.20,333.36 L 381.83,338.26 L 378.40,343.18 L 374.90,348.11 L 371.29,353.07 L 367.56,358.03 L 363.68,362.99 L 359.64,367.95 L 355.40,372.86 L 350.95,377.73 L 346.27,382.52 L 341.34,387.19 L 336.16,391.73 L 330.71,396.10 L 325.00,400.25 L 319.02,404.17 L 312.79,407.81 L 306.31,411.13 L 299.61,414.11 L 292.69,416.72 L 285.60,418.92 L 278.35,420.70 L 270.97,422.03 L 263.51,422.90 L 256.00,423.30 L 248.47,423.22 L 240.97,422.67 L 233.53,421.64 L 226.19,420.14 L 218.98,418.20 L 211.94,415.83 L 205.09,413.06 L 198.47,409.90 L 192.08,406.40 L 185.95,402.58 L 180.09,398.48 L 174.51,394.13 L 169.21,389.57 L 164.19,384.83 L 159.44,379.95 L 154.95,374.96 L 150.70,369.89 L 146.68,364.76 L 142.86,359.60 L 139.23,354.43 L 135.76,349.26 L 132.42,344.10 L 129.19,338.97 L 126.06,333.85 L 122.99,328.76 L 119.97,323.69 L 116.99,318.62 L 114.03,313.55 L 111.09,308.46 L 108.15,303.34 L 105.23,298.17 L 102.33,292.94 L 99.46,287.62 L 96.63,282.20 L 93.87,276.67 L 91.20,271.01 L 88.64,265.22 L 86.23,259.29 L 84.00,253.22 L 81.98,247.00 L 80.21,240.65 L 78.72,234.16 L 77.55,227.57 L 76.73,220.88 L 76.29,214.11 L 76.26,207.30 L 76.66,200.47 L 77.51,193.64 L 78.82,186.86 L 80.61,180.16 L 82.89,173.58 L 85.64,167.14 L 88.86,160.89 L 92.55,154.85 L 96.68,149.06 L 101.23,143.55 L 106.18,138.34 L 111.50,133.46 L 117.15,128.92 L 123.10,124.73 L 129.30,120.90 L 135.73,117.44 L 142.33,114.35 L 149.09,111.62 L 155.94,109.23 L 162.87,107.18 L 169.83,105.45 L 176.81,104.01 L 183.76,102.84 L 190.68,101.91 L 197.54,101.21 L 204.33,100.69 L 211.04,100.33 L 217.67,100.11 L 224.22,100.00 L 230.69,99.98 L 237.09,100.02 L 243.43,100.11 L 249.73,100.23 L 256.00,100.38 L 262.25,100.55 L 268.51,100.74 L 274.79,100.96 L 281.10,101.20 L 287.46,101.49 L 293.88,101.84 L 300.37,102.26 L 306.93,102.79 L 313.57,103.44 L 320.27,104.24 L 327.04,105.22 L 333.87,106.41 L 340.72,107.82 L 347.59,109.50 L 354.44,111.46 L 361.26,113.71 L 368.00,116.30 L 374.63,119.21 L 381.12,122.48 L 387.42,126.09 L 393.50,130.06 L 399.32,134.38 L 404.84,139.05 L 410.02,144.05 L 414.84,149.36 L 419.25,154.96 L 423.24,160.83 L 426.78,166.95 L 429.84,173.27 L 432.43,179.77 L 434.54,186.40 L 436.15,193.15 L 437.28,199.96 L 437.93,206.82 L 438.13,213.67 L 437.88,220.50 L 437.21,227.27 L 436.15,233.96 L 434.73,240.54 L 432.98,247.00 Z" fill="none" stroke="#ffffff" stroke-width="8.5" stroke-linejoin="round" opacity="0.96"/>
    <path d="M 449.45,244.00 L 447.31,250.92 L 444.98,257.68 L 442.47,264.31 L 439.84,270.79 L 437.11,277.14 L 434.30,283.38 L 431.43,289.52 L 428.53,295.57 L 425.59,301.56 L 422.63,307.50 L 419.65,313.41 L 416.64,319.30 L 413.60,325.20 L 410.50,331.10 L 407.33,337.03 L 404.08,342.98 L 400.72,348.96 L 397.21,354.96 L 393.54,360.97 L 389.68,366.98 L 385.60,372.98 L 381.27,378.94 L 376.68,384.83 L 371.80,390.63 L 366.62,396.30 L 361.12,401.81 L 355.30,407.12 L 349.15,412.20 L 342.68,416.99 L 335.90,421.46 L 328.82,425.58 L 321.45,429.31 L 313.82,432.62 L 305.97,435.48 L 297.91,437.85 L 289.70,439.73 L 281.36,441.09 L 272.93,441.92 L 264.47,442.22 L 256.00,441.99 L 247.58,441.24 L 239.24,439.97 L 231.01,438.21 L 222.95,435.97 L 215.07,433.29 L 207.41,430.19 L 199.99,426.71 L 192.83,422.88 L 185.93,418.73 L 179.32,414.32 L 172.98,409.67 L 166.93,404.83 L 161.14,399.83 L 155.62,394.70 L 150.34,389.48 L 145.29,384.19 L 140.44,378.86 L 135.77,373.51 L 131.25,368.15 L 126.87,362.80 L 122.60,357.45 L 118.40,352.12 L 114.28,346.79 L 110.19,341.46 L 106.14,336.12 L 102.11,330.76 L 98.09,325.36 L 94.09,319.90 L 90.11,314.36 L 86.15,308.72 L 82.24,302.98 L 78.39,297.09 L 74.62,291.06 L 70.98,284.87 L 67.47,278.50 L 64.15,271.95 L 61.05,265.23 L 58.21,258.32 L 55.66,251.24 L 53.45,244.00 L 51.62,236.61 L 50.20,229.10 L 49.22,221.48 L 48.72,213.80 L 48.72,206.07 L 49.24,198.33 L 50.30,190.63 L 51.91,182.99 L 54.07,175.46 L 56.77,168.08 L 60.02,160.88 L 63.80,153.90 L 68.09,147.18 L 72.85,140.75 L 78.07,134.62 L 83.71,128.84 L 89.73,123.41 L 96.09,118.35 L 102.75,113.67 L 109.66,109.37 L 116.79,105.45 L 124.09,101.91 L 131.52,98.73 L 139.04,95.89 L 146.61,93.38 L 154.21,91.18 L 161.80,89.26 L 169.37,87.58 L 176.89,86.13 L 184.36,84.88 L 191.75,83.78 L 199.08,82.83 L 206.33,81.98 L 213.52,81.22 L 220.66,80.53 L 227.75,79.89 L 234.81,79.29 L 241.86,78.72 L 248.92,78.18 L 256.00,77.67 L 263.12,77.20 L 270.31,76.78 L 277.56,76.42 L 284.90,76.14 L 292.33,75.97 L 299.86,75.94 L 307.48,76.07 L 315.20,76.39 L 322.99,76.93 L 330.86,77.73 L 338.77,78.82 L 346.71,80.22 L 354.64,81.96 L 362.53,84.07 L 370.35,86.56 L 378.05,89.45 L 385.60,92.76 L 392.95,96.48 L 400.06,100.62 L 406.89,105.18 L 413.39,110.15 L 419.53,115.51 L 425.26,121.24 L 430.56,127.32 L 435.40,133.72 L 439.75,140.40 L 443.60,147.34 L 446.93,154.50 L 449.73,161.83 L 452.01,169.31 L 453.76,176.88 L 455.01,184.51 L 455.76,192.17 L 456.03,199.82 L 455.86,207.43 L 455.28,214.96 L 454.30,222.41 L 452.99,229.74 L 451.35,236.94 L 449.45,244.00 Z" fill="none" stroke="#ffffff" stroke-width="8.5" stroke-linejoin="round" opacity="0.96"/>
    <path d="M 465.41,241.00 L 463.46,248.50 L 461.37,255.87 L 459.17,263.12 L 456.89,270.27 L 454.55,277.33 L 452.16,284.33 L 449.73,291.27 L 447.26,298.17 L 444.76,305.07 L 442.21,311.96 L 439.60,318.87 L 436.91,325.81 L 434.13,332.78 L 431.22,339.78 L 428.16,346.83 L 424.91,353.90 L 421.45,361.00 L 417.75,368.10 L 413.78,375.18 L 409.50,382.22 L 404.90,389.19 L 399.94,396.05 L 394.62,402.77 L 388.91,409.30 L 382.82,415.62 L 376.33,421.66 L 369.46,427.39 L 362.21,432.77 L 354.59,437.75 L 346.63,442.30 L 338.36,446.39 L 329.80,449.97 L 321.00,453.02 L 311.98,455.53 L 302.80,457.46 L 293.50,458.83 L 284.12,459.61 L 274.72,459.81 L 265.33,459.43 L 256.00,458.51 L 246.77,457.04 L 237.69,455.06 L 228.78,452.59 L 220.07,449.68 L 211.60,446.35 L 203.38,442.64 L 195.42,438.60 L 187.74,434.27 L 180.34,429.68 L 173.21,424.89 L 166.34,419.92 L 159.74,414.81 L 153.37,409.60 L 147.22,404.32 L 141.26,398.98 L 135.48,393.61 L 129.85,388.22 L 124.34,382.82 L 118.93,377.42 L 113.59,372.02 L 108.30,366.61 L 103.06,361.18 L 97.84,355.71 L 92.63,350.20 L 87.44,344.62 L 82.27,338.95 L 77.11,333.17 L 72.00,327.25 L 66.93,321.19 L 61.95,314.95 L 57.08,308.52 L 52.34,301.88 L 47.79,295.02 L 43.45,287.95 L 39.37,280.64 L 35.59,273.12 L 32.17,265.37 L 29.14,257.43 L 26.54,249.29 L 24.41,241.00 L 22.80,232.57 L 21.73,224.04 L 21.23,215.44 L 21.32,206.80 L 22.02,198.18 L 23.34,189.61 L 25.28,181.14 L 27.85,172.80 L 31.02,164.64 L 34.78,156.70 L 39.11,149.01 L 43.98,141.61 L 49.36,134.53 L 55.20,127.80 L 61.48,121.42 L 68.14,115.43 L 75.13,109.82 L 82.41,104.60 L 89.94,99.78 L 97.67,95.33 L 105.55,91.26 L 113.53,87.54 L 121.60,84.15 L 129.70,81.07 L 137.81,78.27 L 145.91,75.72 L 153.98,73.40 L 162.00,71.27 L 169.96,69.30 L 177.87,67.47 L 185.72,65.74 L 193.53,64.10 L 201.29,62.53 L 209.03,61.02 L 216.77,59.54 L 224.51,58.10 L 232.29,56.70 L 240.12,55.34 L 248.02,54.03 L 256.00,52.79 L 264.09,51.63 L 272.29,50.59 L 280.61,49.68 L 289.06,48.95 L 297.64,48.42 L 306.33,48.13 L 315.13,48.11 L 324.02,48.41 L 332.98,49.04 L 341.97,50.05 L 350.97,51.47 L 359.95,53.31 L 368.85,55.61 L 377.64,58.38 L 386.27,61.63 L 394.70,65.37 L 402.87,69.60 L 410.75,74.31 L 418.28,79.49 L 425.42,85.13 L 432.14,91.20 L 438.40,97.68 L 444.16,104.53 L 449.41,111.72 L 454.12,119.21 L 458.28,126.96 L 461.88,134.92 L 464.93,143.06 L 467.43,151.33 L 469.38,159.68 L 470.82,168.09 L 471.76,176.50 L 472.23,184.90 L 472.26,193.23 L 471.89,201.49 L 471.17,209.65 L 470.11,217.69 L 468.78,225.59 L 467.20,233.37 L 465.41,241.00 Z" fill="none" stroke="#ffffff" stroke-width="8.5" stroke-linejoin="round" opacity="0.96"/>
  </g>
  <circle cx="256" cy="265.0" r="7" fill="#ffffff"/>
</svg>